<svg width="1025" height="982" viewBox="0 0 1025 982" fill="none" xmlns="http://www.w3.org/2000/svg" xmlns:xlink="http://www.w3.org/1999/xlink">
<path d="M868 -31V-31C878.257 48.6982 837.982 153.12 759.503 170.385C712.159 180.801 663.602 197.385 621.37 223.5C479.87 311 603.87 486 495.37 565.5C386.87 645 276.18 697 235.37 796.5C194.56 896 287.37 1010 287.37 1010" stroke="#E95682" stroke-width="12"/>
<path d="M795.5 25.5V25.5C799.22 54.4029 781.017 158.272 752.689 165.109C709.139 175.621 665.096 191.553 626.37 215.5C484.87 303 608.87 478 500.37 557.5C391.87 637 293.31 691 252.5 790.5C211.69 890 292.37 1002 292.37 1002" stroke="white" stroke-width="5"/>
<path d="M853 -31V-31C863.257 48.6982 822.982 153.12 744.503 170.385C697.159 180.801 648.602 197.385 606.37 223.5C464.87 311 588.87 486 480.37 565.5C371.87 645 261.18 697 220.37 796.5C179.56 896 272.37 1010 272.37 1010" stroke="#E95682"/>
<path d="M927.372 432.496C869.15 411.892 811.687 411.059 765.809 444.361C719.93 411.059 662.467 411.892 604.245 432.496C511.119 465.452 451.317 536.509 496.258 663.498C538.115 781.777 736.857 878.268 763.926 890.95C764.385 891.882 764.629 892.366 764.629 892.366C764.629 892.366 765.038 892.181 765.809 891.825C766.579 892.181 766.988 892.366 766.988 892.366C766.988 892.366 767.232 891.882 767.691 890.95C794.76 878.268 993.501 781.777 1035.36 663.498C1080.3 536.509 1020.5 465.452 927.372 432.496Z" fill="#FED700"/>
<path d="M831.438 655.103L777.675 757.347L775.137 690.478L799.144 626.976L774.6 676.308L771.17 585.945L803.311 500.927L770.449 566.972L765.808 444.673L758.115 647.382L687.678 513.427L757.707 658.152L753.732 762.89L697.054 655.103L753.402 771.558L744.974 993.667H786.643L777.986 765.569L831.438 655.103Z" fill="#06478E"/>
<path d="M163.428 853.737C212.214 944.262 315.755 983.122 315.755 983.122C315.755 983.122 340.198 875.213 291.413 784.688C242.627 694.163 139.086 655.302 139.086 655.302C139.086 655.302 114.642 763.212 163.428 853.737Z" fill="#FFE763"/>
<path d="M196.96 823.955C285.039 876.975 318.961 982.287 318.961 982.287C318.961 982.287 210.079 1001.64 122 948.617C33.9218 895.597 0 790.285 0 790.285C0 790.285 108.882 770.935 196.96 823.955Z" fill="#06478E"/>
<path d="M857.941 621.781H209.601V635.679H857.941V621.781Z" fill="#7E143A"/>
<path d="M857.941 691.269H209.601V705.166H857.941V691.269Z" fill="#7E143A"/>
<path d="M857.941 757.282H209.601V778.128H857.941V757.282Z" fill="#7E143A"/>
<path d="M310.945 579.554L309.964 982.121L324.371 982.156L325.352 579.589L310.945 579.554Z" fill="#7E143A"/>
<path d="M735.967 580.59L734.986 983.158L749.394 983.193L750.375 580.625L735.967 580.59Z" fill="#7E143A"/>
<path d="M991.204 399.233C976.519 374.407 947.466 373.25 947.466 373.25C947.466 373.25 919.156 369.627 900.995 407.438C884.068 442.681 860.706 476.709 897.234 484.959L903.832 464.412L907.918 486.489C913.119 486.863 918.336 486.952 923.547 486.756C962.666 485.492 999.921 487.126 998.721 473.081C997.126 454.41 1005.33 423.121 991.204 399.233Z" fill="#2F2E41"/>
<path d="M957.543 943.628C956.277 949.288 954.014 954.797 953.892 960.596C953.771 966.395 956.57 972.855 962.114 974.548C964.765 975.149 967.514 975.174 970.176 974.619C973.112 974.221 976.231 973.743 978.461 971.792C981.59 969.053 981.952 964.387 981.981 960.228C982.122 939.536 979.606 918.929 977.095 898.389C977.057 898.073 963.629 897.758 962.28 898.378C958.367 900.175 958.72 904.591 958.668 908.341C958.506 920.1 960.14 932.02 957.543 943.628Z" fill="#2F2E41"/>
<path d="M866.447 943.628C867.713 949.288 869.976 954.797 870.097 960.596C870.219 966.395 867.42 972.855 861.876 974.548C859.225 975.149 856.475 975.174 853.814 974.619C850.878 974.221 847.759 973.743 845.529 971.792C842.4 969.053 842.038 964.387 842.009 960.228C841.868 939.536 844.384 918.929 846.895 898.389C846.933 898.073 860.361 897.758 861.71 898.378C865.623 900.175 865.27 904.591 865.322 908.341C865.484 920.1 863.85 932.02 866.447 943.628Z" fill="#2F2E41"/>
<path d="M911.401 625.698C917.929 628.816 925.398 629.222 932.632 629.142C948.661 628.961 964.598 626.668 980.028 622.321C982.986 621.62 985.82 620.473 988.433 618.922C989.092 618.569 989.612 618.004 989.91 617.319C990.043 616.768 990.046 616.192 989.919 615.639L987.42 598.987C987.444 598.669 987.392 598.35 987.268 598.056C987.144 597.762 986.951 597.502 986.706 597.298C986.462 597.094 986.172 596.951 985.86 596.882C985.549 596.813 985.226 596.819 984.918 596.9C971.328 596.96 957.751 597.756 944.246 599.284C937.385 600.061 930.549 601.025 923.737 602.177C920.13 602.788 909.651 602.905 907.827 606.759C906.742 609.054 908.936 613.09 909.492 615.322C909.801 616.56 910.655 625.341 911.401 625.698Z" fill="#FFB8B8"/>
<g filter="url(#filter0_d_15_849)">
<path d="M941.879 621.581C930.406 621.153 919.08 618.86 908.343 614.789C907.873 614.611 907.259 614.461 906.934 614.846C906.802 615.038 906.727 615.263 906.718 615.495L903.962 636.33C901.103 657.941 893.563 679.305 888.636 700.539C885.612 713.573 882.587 726.608 879.427 739.609C876.209 752.852 872.846 766.074 868.595 779.022C856.944 814.445 838.803 847.387 815.101 876.165C812.362 879.486 809.374 883.313 809.938 887.581C810.67 893.11 816.745 895.992 821.986 897.89C817.137 900.034 817.437 907.689 821.309 911.312C825.18 914.936 830.875 915.615 836.153 916.113L854.212 917.82C858.834 918.257 863.693 918.658 867.941 916.784C870.685 915.573 872.958 913.496 875.621 912.116C885.037 907.236 896.269 911.996 906.283 915.487C920.255 920.351 934.989 922.656 949.779 922.294C955.958 922.139 963.165 920.857 965.986 915.353C967.075 913.228 967.311 910.767 968.228 908.562C968.914 907.096 969.885 905.781 971.083 904.693C972.281 903.605 973.683 902.766 975.208 902.224C976.733 901.682 978.35 901.448 979.965 901.536C981.581 901.624 983.163 902.031 984.62 902.735C989.737 905.492 992.196 911.625 997.047 914.826C1000.94 917.397 1005.85 917.743 1010.51 918.012L1037.02 919.541C1038.06 917.688 1038.55 915.578 1038.44 913.457C1038.32 911.336 1037.61 909.291 1036.38 907.56C1041.5 907.656 1046.54 906.256 1050.88 903.531C1055.23 900.806 1058.68 896.874 1060.82 892.215C1062.97 887.557 1063.71 882.375 1062.96 877.302C1062.21 872.23 1059.99 867.486 1056.59 863.652C1052.83 859.424 1050.07 854.402 1048.52 848.961C1039.9 816.636 1039.17 782.652 1031.23 750.152C1029.64 743.644 1027.76 737.19 1026.75 730.567C1025.47 722.186 1025.61 713.664 1025.28 705.192C1024.51 685.253 1021.18 665.496 1015.35 646.413C1011.41 633.535 1006.22 620.773 997.604 610.427C995.49 607.616 992.753 605.334 989.608 603.762C986.399 602.361 982.394 602.343 979.628 604.492C978.027 605.736 976.988 607.558 975.59 609.028C972.578 612.196 968.159 613.51 963.953 614.698C955.485 617.092 950.673 621.906 941.879 621.581Z" fill="#7E143A"/>
</g>
<path d="M867.943 617.688C867.395 620.435 866.772 623.166 866.145 625.896C862.395 642.224 858.519 658.521 854.515 674.788C853.82 678.104 852.775 681.337 851.397 684.432C848.897 689.558 844.664 693.637 841.823 698.582C838.982 703.527 837.807 710.26 841.469 714.631C843.811 717.427 847.542 718.565 851.077 719.458C854.434 720.305 858.248 720.988 861.148 719.095C864.235 717.079 865.038 712.977 865.489 709.317C867.406 693.776 867.926 677.946 872.213 662.886C873.645 657.856 875.487 652.953 877.327 648.057L888.199 619.121C890.911 611.902 893.66 604.492 893.688 596.78C893.773 596.042 893.704 595.295 893.487 594.585C893.27 593.876 892.91 593.218 892.428 592.654C891.854 592.189 891.188 591.852 890.474 591.665C885.888 590.187 874.114 588.976 871.015 594.004C869.487 596.484 870.23 602.216 869.9 605.128C869.424 609.34 868.771 613.526 867.943 617.688Z" fill="#FFB8B8"/>
<path d="M1004.04 600.025C1011.25 620.435 1019.21 640.554 1027.95 660.382C1029.06 662.725 1029.98 665.152 1030.71 667.639C1031.3 669.856 1031.56 672.142 1031.94 674.402C1033.92 686.167 1039.71 697.969 1050.04 703.925C1051.83 705.104 1053.93 705.738 1056.08 705.749C1060.35 705.502 1063.39 701.351 1064.56 697.239C1065.38 694.361 1065.61 691.346 1065.23 688.378C1065.19 687.619 1064.93 686.888 1064.49 686.27C1063.97 685.755 1063.34 685.376 1062.64 685.165C1056.33 682.663 1049.9 679.177 1046.71 673.179C1045.31 670.191 1044.35 667.013 1043.87 663.747L1037.71 632.416C1036.98 628.691 1036.25 624.961 1035.23 621.302C1034.4 618.306 1033.39 615.365 1032.38 612.426L1025.64 592.906L1020.69 578.534C1020.66 578.244 1020.57 577.964 1020.42 577.711C1020.27 577.458 1020.08 577.239 1019.84 577.065C1019.61 576.892 1019.34 576.77 1019.06 576.706C1018.77 576.641 1018.48 576.637 1018.19 576.692L1004.33 576.68C995.135 576.672 1002.35 595.231 1004.04 600.025Z" fill="#FFB8B8"/>
<path d="M939.415 462.11C956.949 462.11 971.164 447.887 971.164 430.343C971.164 412.799 956.949 398.576 939.415 398.576C921.88 398.576 907.666 412.799 907.666 430.343C907.666 447.887 921.88 462.11 939.415 462.11Z" fill="#FFB8B8"/>
<path d="M922.746 468.93C920.931 471.732 917.968 473.542 915.106 475.258C909.738 478.697 904.073 481.647 898.178 484.072C892.872 486.07 887.141 487.273 882.525 490.566C877.68 494.022 874.565 499.489 872.856 505.191C871.147 510.894 870.713 516.888 870.289 522.826C870.109 524.051 870.209 525.301 870.582 526.481C871.292 528.245 873.107 529.275 874.845 530.044C883.697 533.957 893.61 534.548 903.28 534.921C922.638 535.666 942.015 535.765 961.388 535.864C968.933 536.378 976.493 535.116 983.462 532.178L996.733 527.407C998.602 526.832 1000.38 525.997 1002.02 524.928C1007.63 520.873 1007.85 512.538 1006.11 505.832C1004.78 500.741 1002.43 495.573 998.018 492.711C995.464 491.277 992.728 490.196 989.884 489.498C980.402 486.519 971.546 481.827 963.755 475.653C961.877 474.295 960.256 472.612 958.968 470.684C956.591 466.743 956.896 461.824 956.894 457.221C956.983 456.499 956.923 455.767 956.719 455.07C956.515 454.372 956.171 453.723 955.707 453.164C954.772 452.483 953.645 452.119 952.489 452.122C944.956 451.372 937.149 450.802 929.729 452.685C925.112 453.857 924.656 454.117 924.844 458.639C924.991 462.176 924.724 465.878 922.746 468.93Z" fill="#FFB8B8"/>
<path d="M984.712 396.839L956.008 381.797L916.371 387.951L908.17 424.191L928.585 423.406L934.288 410.09V423.186L943.707 422.823L949.175 401.627L952.591 424.191L986.079 423.507L984.712 396.839Z" fill="#2F2E41"/>
<path opacity="0.1" d="M950.372 532.905C949.098 513.618 925.56 511.94 925.322 511.925L925.366 511.204C925.594 511.218 946.581 512.706 950.515 529.017C951.053 522.922 953.426 511.738 963.569 511.204L963.607 511.925C950.412 512.62 951.084 532.663 951.092 532.866L950.372 532.905Z" fill="black"/>
<path d="M943.498 527.338L871.911 513.263C871.544 513.121 871.149 513.061 870.756 513.088C870.363 513.115 869.981 513.229 869.637 513.421C869.293 513.613 868.995 513.878 868.765 514.198C868.535 514.518 868.378 514.885 868.306 515.272L865.712 520.643C863.435 524.791 862.066 529.377 861.696 534.095L860.102 546.084C860.024 548.104 859.368 550.059 858.211 551.716C857.433 552.533 856.523 553.214 855.519 553.73C853.106 554.92 850.922 556.528 849.068 558.479C847.358 560.549 846.512 563.592 847.772 565.964C849.807 569.794 855.595 569.638 858.579 572.784C861.327 575.682 860.794 580.401 859.209 584.068C858.186 586.436 856.775 588.792 856.894 591.369C857.057 592.812 857.583 594.19 858.425 595.373C859.266 596.557 860.394 597.507 861.703 598.134C864.335 599.359 867.179 600.059 870.078 600.197C876.225 600.816 882.409 600.997 888.582 600.736C891.687 600.78 894.767 600.181 897.629 598.977C900.408 597.614 902.733 594.909 902.783 591.812C902.867 586.708 897.071 582.673 897.804 577.621C897.853 577.121 898.037 576.643 898.334 576.238C899.327 575.014 901.274 575.518 902.791 575.097C905.204 574.428 906.199 571.371 905.661 568.925C905.123 566.478 903.531 564.425 902.319 562.233C900.157 558.333 899.208 553.876 899.595 549.433C905.1 550.78 897.983 555.858 898.764 561.475C900.682 575.258 906.884 591.015 904.39 604.705C904.189 605.312 904.124 605.955 904.197 606.589C904.271 607.223 904.483 607.834 904.817 608.378C905.329 608.885 905.971 609.241 906.672 609.406C915.793 612.269 925.468 608.434 934.863 606.671C941.411 605.589 948.044 605.092 954.681 605.188C964.47 605.119 974.253 605.406 984.029 606.049C986.495 606.211 989.086 606.374 991.319 605.316C993.552 604.258 995.197 601.515 994.162 599.27C1001.86 599.123 1009.09 603.971 1016.76 603.321C1025.02 602.622 1031.3 595.873 1036.71 589.587C1038.21 588.123 1039.3 586.281 1039.84 584.255C1040.24 581.944 1039.24 579.657 1038.46 577.446C1037.59 574.98 1036.98 572.429 1036.65 569.835C1036.3 568.213 1036.49 566.521 1037.2 565.021C1038.2 563.332 1040.25 562.54 1041.43 560.974C1043.82 557.808 1041.6 553.109 1038.47 550.672C1035.35 548.235 1031.38 546.908 1028.64 544.035C1024.82 540.016 1024.28 534.011 1023.32 528.545C1022.47 523.726 1021.06 518.815 1017.84 515.128C1014.63 511.442 1009.23 509.304 1004.69 511.118C1003.29 511.783 1001.94 512.524 1000.62 513.338C997.934 514.621 995.085 515.538 992.153 516.064C975.829 519.749 959.918 530.567 943.498 527.338Z" fill="#7E143A"/>
<path d="M837.64 690.439C837.64 690.439 875.102 705.981 863.224 715.123C851.346 724.265 826.676 704.152 827.589 701.41C828.503 698.667 823.935 692.267 823.935 692.267L837.64 690.439Z" fill="#FFB8B8"/>
<path d="M804.747 567.935L816.625 578.905L819.366 610.902L828.503 644.728C828.503 644.728 844.036 676.726 841.295 683.125C838.554 689.525 844.036 691.353 844.036 691.353L823.021 699.581C823.021 699.581 800.178 673.983 800.178 668.498C800.178 663.013 804.747 567.935 804.747 567.935Z" fill="#F93064"/>
<path opacity="0.1" d="M804.747 567.935L816.625 578.905L819.366 610.902L828.503 644.728C828.503 644.728 844.036 676.726 841.295 683.125C838.554 689.525 844.036 691.353 844.036 691.353L823.021 699.581C823.021 699.581 800.178 673.983 800.178 668.498C800.178 663.013 804.747 567.935 804.747 567.935Z" fill="black"/>
<path d="M917.133 923.761C917.133 923.761 912.565 944.788 911.651 946.617C910.737 948.445 929.011 954.845 929.011 954.845L950.94 939.303C950.94 939.303 941.803 919.19 941.803 915.533L917.133 923.761Z" fill="#575A88"/>
<path d="M797.437 692.267L803.833 699.581C803.833 699.581 936.321 716.037 939.062 741.635C941.803 767.233 960.991 914.619 950.027 918.276C939.062 921.933 910.737 935.646 910.737 928.332C910.737 921.019 892.463 793.745 896.118 775.461C896.118 775.461 738.046 755.348 734.391 732.493C730.736 709.637 738.046 699.581 738.046 699.581L797.437 692.267Z" fill="#2F2E41"/>
<path d="M723.069 705L729.465 712.314C729.465 712.314 861.953 728.769 864.695 754.367C867.436 779.965 886.624 927.352 875.659 931.009C864.695 934.665 836.37 948.379 836.37 941.065C836.37 933.751 818.095 806.477 821.75 788.193C821.75 788.193 663.678 768.081 660.023 745.225C656.369 722.37 663.678 712.314 663.678 712.314L723.069 705Z" fill="#2F2E41"/>
<path opacity="0.1" d="M797.437 692.267L803.833 699.581C803.833 699.581 936.321 716.037 939.062 741.635C941.803 767.233 960.991 914.619 950.027 918.276C939.062 921.933 910.737 935.646 910.737 928.332C910.737 921.019 892.463 793.745 896.118 775.461C896.118 775.461 738.046 755.348 734.391 732.493C730.736 709.637 738.046 699.581 738.046 699.581L797.437 692.267Z" fill="black"/>
<path opacity="0.1" d="M723.069 692.267L729.465 699.581C729.465 699.581 861.953 716.037 864.695 741.635C867.436 767.233 886.624 914.619 875.659 918.276C864.695 921.933 836.37 935.646 836.37 928.332C836.37 921.019 818.095 793.745 821.75 775.461C821.75 775.461 663.678 755.348 660.023 732.493C656.369 709.637 663.678 699.581 663.678 699.581L723.069 692.267Z" fill="black"/>
<path d="M915.306 944.788C915.306 944.788 911.651 936.56 909.823 939.303C907.996 942.045 901.6 974.043 907.996 974.043C914.392 974.043 972.869 988.67 981.093 986.842C989.316 985.013 1004.85 987.756 1003.02 978.614C1001.19 969.472 992.057 968.558 992.057 968.558C992.057 968.558 958.25 948.445 956.423 938.389C954.595 928.332 944.544 933.818 944.544 933.818V940.217C944.544 940.217 925.356 954.844 915.306 944.788Z" fill="#2F2E41"/>
<path d="M741.7 498.455C741.7 498.455 748.096 529.538 734.391 532.28C720.685 535.023 751.751 553.307 751.751 553.307L771.853 564.278L786.472 549.65C786.472 549.65 773.223 522.681 783.274 502.569C793.325 482.456 741.7 498.455 741.7 498.455Z" fill="#9F616A"/>
<path d="M786.472 549.65L771.853 564.278L751.751 553.307C751.751 553.307 720.685 535.023 734.391 532.28C743.208 530.516 743.701 517.022 742.943 507.624C742.695 504.547 742.281 501.486 741.7 498.455C741.7 498.455 793.325 482.456 783.274 502.569C781.747 505.674 780.688 508.989 780.131 512.406C777.052 530.479 786.472 549.65 786.472 549.65Z" fill="#FFB8B8"/>
<path d="M837.64 923.562V944.589H872.361L875.102 936.362L871.448 914.421L837.64 923.562Z" fill="#575A88"/>
<path d="M840.381 938.19C840.381 938.19 834.899 926.305 833.985 929.962C833.071 933.619 822.107 965.617 833.071 968.359C844.036 971.102 878.757 985.729 901.6 984.815C924.443 983.901 927.184 982.987 927.184 982.987C927.184 982.987 933.58 973.844 925.356 968.359C917.133 962.874 883.326 930.877 881.498 927.22C879.671 923.563 865.965 920.82 865.965 927.22C865.965 933.619 846.777 946.418 840.381 938.19Z" fill="#2F2E41"/>
<path opacity="0.1" d="M783.274 509.976C781.747 513.081 780.688 516.396 780.131 519.812C775.581 522.564 772.538 521.86 766.827 521.86C758.357 521.86 754.94 511.027 749.467 505.404C749.038 500.184 741.7 505.862 741.7 505.862C741.7 505.862 793.325 489.863 783.274 509.976Z" fill="black"/>
<path d="M765.609 520.038C784.935 520.038 800.601 504.364 800.601 485.028C800.601 465.692 784.935 450.017 765.609 450.017C746.284 450.017 730.618 465.692 730.618 485.028C730.618 504.364 746.284 520.038 765.609 520.038Z" fill="#FFB8B8"/>
<path d="M816.625 578.905C816.625 578.905 812.056 611.817 809.315 623.701C806.574 635.586 802.919 690.439 801.092 697.753C799.264 705.066 788.3 706.895 766.371 704.152C764.994 703.979 763.61 703.875 762.223 703.841C748.718 703.412 733.267 708.467 718.967 712.435C710.744 714.72 702.895 716.64 696.015 716.951C685.599 717.426 682.547 705.871 682.903 693.364C683.241 681.726 686.54 669.247 689.619 664.841C695.165 656.906 689.71 585.661 691.757 562.166V562.157C692.068 558.573 692.552 556.105 693.274 555.136C698.756 547.822 734.391 529.538 738.384 530.278C742.368 531.019 776.422 552.393 776.422 552.393C784.645 552.393 784.38 543.47 784.38 543.47C784.38 543.47 790.127 554.221 801.092 556.964C812.056 559.707 816.625 578.905 816.625 578.905Z" fill="#F93064"/>
<path d="M755.546 697.426C755.546 697.426 814.403 699.301 804.093 706.298C793.782 713.294 748.096 719.694 747.183 710.552C746.269 701.409 755.546 697.426 755.546 697.426Z" fill="#FFB8B8"/>
<path opacity="0.1" d="M762.222 703.841C762.414 707.352 752.976 715.26 749.924 720.608C748.234 723.57 735.149 719.666 718.967 712.435C706.55 706.858 694.504 700.488 682.903 693.364C683.241 681.727 686.54 669.248 689.619 664.841C695.165 656.906 689.71 585.661 691.757 562.166V562.157C692.245 561.909 692.752 561.701 693.274 561.535H704.238C741.701 578.905 698.756 653.87 698.756 653.87C698.756 653.87 755.406 700.495 760.888 702.324C761.248 702.392 761.574 702.578 761.816 702.853C762.058 703.128 762.201 703.476 762.222 703.841Z" fill="black"/>
<path d="M704.238 556.05H693.274C693.274 556.05 683.223 558.793 675 577.077C666.776 595.361 636.624 652.042 663.121 673.983C689.619 695.924 746.269 721.522 749.924 715.123C753.579 708.723 766.371 698.667 760.888 696.838C755.406 695.01 698.756 648.385 698.756 648.385C698.756 648.385 741.7 573.42 704.238 556.05Z" fill="#F93064"/>
<path d="M760.226 468.736C760.226 468.736 761.762 447.467 780.706 456.139C799.65 464.812 798.414 440.908 792.689 436.684C786.964 432.46 787.145 431.414 766.208 434.24C745.27 437.067 704.62 441.855 717.764 483.978C730.908 526.1 742.812 515.264 742.812 515.264C742.812 515.264 732.364 477.359 742.95 484.581L753.536 491.802L759.122 490.619L760.226 468.736Z" fill="#2F2E41"/>
<rect x="336" y="207" width="55" height="50" fill="url(#pattern0)"/>
<defs>
<filter id="filter0_d_15_849" x="805.869" y="602.782" width="261.375" height="327.548" filterUnits="userSpaceOnUse" color-interpolation-filters="sRGB">
<feFlood flood-opacity="0" result="BackgroundImageFix"/>
<feColorMatrix in="SourceAlpha" type="matrix" values="0 0 0 0 0 0 0 0 0 0 0 0 0 0 0 0 0 0 127 0" result="hardAlpha"/>
<feOffset dy="4"/>
<feGaussianBlur stdDeviation="2"/>
<feComposite in2="hardAlpha" operator="out"/>
<feColorMatrix type="matrix" values="0 0 0 0 0 0 0 0 0 0 0 0 0 0 0 0 0 0 0.25 0"/>
<feBlend mode="normal" in2="BackgroundImageFix" result="effect1_dropShadow_15_849"/>
<feBlend mode="normal" in="SourceGraphic" in2="effect1_dropShadow_15_849" result="shape"/>
</filter>
<pattern id="pattern0" patternContentUnits="objectBoundingBox" width="1" height="1">
<use xlink:href="#image0_15_849" transform="matrix(0.00212766 0 0 0.00234043 0 -0.00319149)"/>
</pattern>

</defs>
</svg>
