<svg width="368" height="777" viewBox="0 0 368 777" fill="none" xmlns="http://www.w3.org/2000/svg">
<path opacity="0.4" fill-rule="evenodd" clip-rule="evenodd" d="M320 750.144C320 758.494 329.528 767.324 336.503 772.67L336.503 772.67C339.661 775.09 341.24 776.3 343.706 776.3C346.172 776.3 347.751 775.09 350.908 772.67C357.883 767.324 367.412 758.494 367.412 750.144C367.412 736.196 354.373 730.988 343.706 741.763C333.039 730.988 320 736.196 320 750.144Z" fill="#F93064"/>
<path opacity="0.1" fill-rule="evenodd" clip-rule="evenodd" d="M0 77.1442C0 85.4936 9.52841 94.3242 16.5034 99.67L16.5034 99.67C19.661 102.09 21.2398 103.3 23.7059 103.3C26.172 103.3 27.7508 102.09 30.9084 99.67C37.8834 94.3243 47.4118 85.4937 47.4118 77.1441C47.4118 63.1959 34.3731 57.9882 23.7059 68.7632C13.0386 57.9882 0 63.1959 0 77.1442Z" fill="#F93064"/>
<path opacity="0.35" fill-rule="evenodd" clip-rule="evenodd" d="M26 442.265C26 445.963 30.2204 449.874 33.3098 452.242L33.3098 452.242C34.7084 453.314 35.4077 453.85 36.5 453.85C37.5923 453.85 38.2916 453.314 39.6902 452.242C42.7796 449.874 47 445.963 47 442.265C47 436.087 41.2248 433.78 36.5 438.553C31.7752 433.78 26 436.087 26 442.265Z" fill="#F93064"/>
<path opacity="0.15" fill-rule="evenodd" clip-rule="evenodd" d="M71 699.092C71 708.001 81.1668 717.423 88.6091 723.127C91.9782 725.709 93.6628 727 96.2941 727C98.9254 727 100.61 725.709 103.979 723.127C111.421 717.423 121.588 708.001 121.588 699.092C121.588 684.209 107.676 678.652 96.2941 690.149C84.9122 678.652 71 684.209 71 699.092Z" fill="#F93064"/>
<path opacity="0.1" fill-rule="evenodd" clip-rule="evenodd" d="M266 418.125C266 423.512 272.147 429.209 276.647 432.658L276.647 432.658C278.685 434.219 279.703 435 281.294 435C282.885 435 283.904 434.219 285.941 432.658C290.441 429.209 296.588 423.512 296.588 418.125C296.588 409.126 288.176 405.767 281.294 412.718C274.412 405.767 266 409.126 266 418.125Z" fill="#F93064"/>
<path opacity="0.2" fill-rule="evenodd" clip-rule="evenodd" d="M320 9.12528C320 14.512 326.23 20.2092 330.791 23.658L330.791 23.6581C332.855 25.2193 333.888 26 335.5 26C337.112 26 338.145 25.2194 340.209 23.6581C344.77 20.2092 351 14.5121 351 9.12523C351 0.126362 342.475 -3.23339 335.5 3.71817C328.525 -3.23339 320 0.126362 320 9.12528Z" fill="#F93064"/>
</svg>
