<svg width="26" height="26" viewBox="0 0 26 26" fill="none" xmlns="http://www.w3.org/2000/svg">
<path d="M8.32006 1.56C4.59166 1.56 1.56006 4.5916 1.56006 8.32V17.68C1.56006 21.4084 4.59166 24.44 8.32006 24.44H17.6801C21.4085 24.44 24.4401 21.4084 24.4401 17.68V8.32C24.4401 4.5916 21.4085 1.56 17.6801 1.56H8.32006ZM19.2401 5.72C19.8121 5.72 20.2801 6.188 20.2801 6.76C20.2801 7.332 19.8121 7.8 19.2401 7.8C18.6681 7.8 18.2001 7.332 18.2001 6.76C18.2001 6.188 18.6681 5.72 19.2401 5.72ZM13.0001 7.28C16.1565 7.28 18.7201 9.8436 18.7201 13C18.7201 16.1564 16.1565 18.72 13.0001 18.72C9.84366 18.72 7.28006 16.1564 7.28006 13C7.28006 9.8436 9.84366 7.28 13.0001 7.28ZM13.0001 8.32C10.4209 8.32 8.32006 10.4208 8.32006 13C8.32006 15.5792 10.4209 17.68 13.0001 17.68C15.5793 17.68 17.6801 15.5792 17.6801 13C17.6801 10.4208 15.5793 8.32 13.0001 8.32Z" fill="#F93064"/>
</svg>
