<svg width="50" height="43" viewBox="0 0 50 43" fill="none" xmlns="http://www.w3.org/2000/svg">
<path fill-rule="evenodd" clip-rule="evenodd" d="M2.12561 22.4192C0.804802 19.9408 0 17.4082 0 14.9163C0 0.206553 13.7504 -5.28535 25 6.07779C36.2496 -5.28535 50 0.206554 50 14.9162C50 23.7216 39.9515 33.0343 32.5957 38.6718C29.2657 41.2239 27.6007 42.5 25 42.5C22.3993 42.5 20.7343 41.2239 17.4044 38.6718L17.4043 38.6718C15.8607 37.4887 14.1985 36.1438 12.5355 34.6758C16.8305 33.5534 20 29.6468 20 25C20 21.622 28.7998 18.0741 34.3712 15.8278C37.9089 14.4015 40.1449 13.5 38 13.5C33.3345 13.5 9.43372 17.7654 2.12561 22.4192Z" fill="#F93064"/>
</svg>
